<?xml version="1.0" encoding="UTF-8" standalone="no"?>
<!-- Created with Inkscape (http://www.inkscape.org/) -->

<svg
   xmlns:dc="http://purl.org/dc/elements/1.1/"
   xmlns:cc="http://creativecommons.org/ns#"
   xmlns:rdf="http://www.w3.org/1999/02/22-rdf-syntax-ns#"
   xmlns:svg="http://www.w3.org/2000/svg"
   xmlns="http://www.w3.org/2000/svg"
   xmlns:xlink="http://www.w3.org/1999/xlink"
   xmlns:sodipodi="http://sodipodi.sourceforge.net/DTD/sodipodi-0.dtd"
   xmlns:inkscape="http://www.inkscape.org/namespaces/inkscape"
   width="210mm"
   height="297mm"
   id="svg8964"
   version="1.1"
   inkscape:version="0.48.3.1 r9886"
   sodipodi:docname="ex16.svg">
  <defs
     id="defs8966">













	<inkscape:perspective
   id="perspective2491"
   inkscape:persp3d-origin="270.04437 : 185.57625 : 1"
   inkscape:vp_z="540.08875 : 278.36438 : 1"
   inkscape:vp_y="0 : 1000 : 0"
   inkscape:vp_x="0 : 278.36438 : 1"
   sodipodi:type="inkscape:persp3d" />
</defs>
  <sodipodi:namedview
     id="base"
     pagecolor="#ffffff"
     bordercolor="#666666"
     borderopacity="1.0"
     inkscape:pageopacity="0.0"
     inkscape:pageshadow="2"
     inkscape:zoom="0.49497475"
     inkscape:cx="300.56072"
     inkscape:cy="327.79521"
     inkscape:document-units="px"
     inkscape:current-layer="layer1"
     showgrid="false"
     inkscape:window-width="1215"
     inkscape:window-height="776"
     inkscape:window-x="65"
     inkscape:window-y="24"
     inkscape:window-maximized="1" />
  <metadata
     id="metadata8969">
    <rdf:RDF>
      <cc:Work
         rdf:about="">
        <dc:format>image/svg+xml</dc:format>
        <dc:type
           rdf:resource="http://purl.org/dc/dcmitype/StillImage" />
        <dc:title></dc:title>
      </cc:Work>
    </rdf:RDF>
  </metadata>
  <g
     inkscape:label="Calque 1"
     inkscape:groupmode="layer"
     id="layer1">
    <rect
       style="fill:#fce94f;fill-opacity:0.8627451;stroke:none"
       id="rect8980"
       width="480"
       height="488.57144"
       x="88.571426"
       y="398.07645" />
    <path
       style="fill:none;stroke:#000000;stroke-width:1px;stroke-linecap:butt;stroke-linejoin:miter;stroke-opacity:1"
       d="m -917.14286,420.93361 c 0,0 66.805,-204.58714 154.28572,-214.28571 112.64717,-12.48866 141.42669,236.11582 254.28571,225.71428 108.12987,-9.96567 200,-257.14286 200,-257.14286"
       id="path8990"
       inkscape:connector-curvature="0"
       sodipodi:nodetypes="caac" />
    <text
       xml:space="preserve"
       style="font-size:110.54011536px;font-style:normal;font-weight:bold;line-height:125%;letter-spacing:0px;word-spacing:0px;fill:#cc0000;fill-opacity:1;stroke:none;font-family:Sans;-inkscape-font-specification:Sans Bold"
       id="text8992"
       sodipodi:linespacing="125%"><textPath
         xlink:href="#path8990"
         id="textPath8998"><tspan
   id="tspan8994"><tspan
     id="tspan8996"
     y="185.98273"
     x="209.82933">blah blah     foo</tspan></tspan></textPath></text>
    <path
       sodipodi:type="arc"
       style="fill:#729fcf;fill-opacity:0.86274510000000004;stroke:none"
       id="path9024"
       sodipodi:cx="-520"
       sodipodi:cy="989.50507"
       sodipodi:rx="322.85715"
       sodipodi:ry="322.85715"
       d="m -197.14285,989.50507 a 322.85715,322.85715 0 1 1 -645.7143,0 322.85715,322.85715 0 1 1 645.7143,0 z" />
    <path
       style="fill:none;stroke:#000000;stroke-width:1.09576452px;stroke-linecap:butt;stroke-linejoin:miter;stroke-opacity:1"
       d="m -794.28572,1098.0765 c 163.18696,223.6161 386.17576,237.9768 551.42857,3.4305"
       id="path9552"
       inkscape:connector-curvature="0"
       sodipodi:nodetypes="cc" />
    <text
       xml:space="preserve"
       style="font-size:72px;font-style:normal;font-weight:normal;line-height:125%;letter-spacing:0px;word-spacing:0px;fill:#ffffff;fill-opacity:1;stroke:none;font-family:Sans"
       id="text9564"
       sodipodi:linespacing="125%"><textPath
         xlink:href="#path9552"
         id="textPath9570"><tspan
   id="tspan9566"
   style="font-size:72px"><tspan
     id="tspan9568"
     y="961.3631"
     x="-907.46948"
     style="font-size:72px"><tspan
   style="font-size:64px"
   id="tspan9574">www</tspan>.postgresql.fr</tspan></tspan></textPath></text>
    <path
       style="fill:#ad7fa8;stroke:#ad7fa8;stroke-width:4.79862309;stroke-miterlimit:4;stroke-opacity:0.9254902;stroke-dasharray:none"
       d="m 122.76417,-1063.9102 c -97.641679,-0.267 -214.293777,52.2099 -311.12717,108.40425 -8.94701,-0.51498 -17.94796,-0.77651 -27.05032,-0.77651 -10.92084,0 -21.75314,0.38588 -32.44745,1.12449 -101.18386,-58.35213 -223.32128,-112.06683 -322.7294,-105.99463 -7.80216,0.4766 -22.78431,4.7122 -22.78431,4.7122 -55.66417,148.66147 -34.27604,279.28162 -12.63644,414.36687 -0.25342,4.85984 -0.38781,9.73245 -0.38781,14.64487 0,181.62762 175.06315,328.88051 390.98541,328.88051 215.92225778,0 390.9531,-147.25289 390.9531,-328.88051 0,-8.46879 -0.38367,-16.8589 -1.13117,-25.1667 21.15882,-132.1733 40.60493,-260.47741 -13.92914,-406.12084 0,0 -14.98216,-4.2622 -22.78429,-4.7388 -4.92853,-0.3012 -9.89597,-0.4415 -14.93101,-0.4552 z"
       id="path9576"
       inkscape:connector-curvature="0" />
    <flowRoot
       xml:space="preserve"
       id="flowRoot9604"
       style="fill:black;stroke:none;stroke-opacity:1;stroke-width:1px;stroke-linejoin:miter;stroke-linecap:butt;fill-opacity:1;font-family:Sans;font-style:normal;font-weight:normal;font-size:40px;line-height:125%;letter-spacing:0px;word-spacing:0px"><flowRegion
         id="flowRegion9606"><rect
           id="rect9608"
           width="945.50281"
           height="1139.452"
           x="-1636.4471"
           y="-1266.948" /></flowRegion><flowPara
         id="flowPara9610"></flowPara></flowRoot>    <flowRoot
       xml:space="preserve"
       style="font-size:38.45841599px;font-style:normal;font-weight:bold;text-align:center;line-height:125%;letter-spacing:0px;word-spacing:0px;text-anchor:middle;fill:#fcaf3e;fill-opacity:1;stroke:none;font-family:Sans;-inkscape-font-specification:Sans Bold"
       id="flowRoot9710"><flowRegion
         id="flowRegion9712"><use
           x="0"
           y="0"
           xlink:href="#path9576"
           id="use9714" /></flowRegion><flowPara
         id="flowPara9716">&quot;Lorem ipsum dolor sit amet, consectetur adipisicing elit, sed do eiusmod tempor incididunt ut labore et dolore magna aliqua. Ut enim ad minim veniam, quis nostrud exercitation ullamco laboris nisi ut aliquip ex ea commodo consequat. Duis aute irure dolor in reprehenderit in voluptate velit esse cillum dolore eu fugiat nulla pariatur. Excepteur sint occaecat cupidatat non proident, sunt in culpa qui officia deserunt mollit anim id est laborum.&quot;</flowPara></flowRoot>    <rect
       style="fill:#494ada;fill-opacity:1;stroke:#ffffff;stroke-width:1;stroke-opacity:1"
       id="rect3653"
       width="672.14813"
       height="594.07031"
       x="14.994283"
       y="575.0141" />
    <g
       id="g3619"
       transform="matrix(0.98207861,0,0,0.96269374,-759.98722,768.40714)">
      <path
         inkscape:connector-curvature="0"
         style="fill:#ffffff;fill-opacity:0;fill-rule:nonzero;stroke:#ffffff;stroke-width:12.46510029;stroke-linecap:round;stroke-linejoin:round;stroke-miterlimit:4;stroke-opacity:1"
         d="m 402.395,271.23 c -50.302,10.376 -53.76,-6.655 -53.76,-6.655 53.111,-78.808 75.313,-178.843 56.153,-203.326 -52.27,-66.785 -142.752,-35.2 -144.262,-34.38 l -0.486,0.087 c -9.938,-2.063 -21.06,-3.292 -33.56,-3.496 -22.761,-0.373 -40.026,5.967 -53.127,15.902 0,0 -161.411,-66.495 -153.904,83.63 1.597,31.938 45.776,241.657 98.471,178.312 19.26,-23.163 37.869,-42.748 37.869,-42.748 9.243,6.14 20.308,9.272 31.908,8.147 l 0.901,-0.765 c -0.28,2.876 -0.152,5.689 0.361,9.019 -13.575,15.167 -9.586,17.83 -36.723,23.416 -27.459,5.659 -11.328,15.734 -0.796,18.367 12.768,3.193 42.307,7.716 62.266,-20.224 l -0.796,3.188 c 5.319,4.26 9.054,27.711 8.428,48.969 -0.626,21.259 -1.044,35.854 3.147,47.254 4.191,11.4 8.368,37.05 44.042,29.406 29.809,-6.388 45.256,-22.942 47.405,-50.555 1.525,-19.631 4.976,-16.729 5.194,-34.28 l 2.768,-8.309 c 3.192,-26.611 0.507,-35.196 18.872,-31.203 l 4.463,0.392 c 13.517,0.615 31.208,-2.174 41.591,-7 22.358,-10.376 35.618,-27.7 13.573,-23.148 l 0.002,0 z"
         id="path2464" />
      <path
         inkscape:connector-curvature="0"
         d="m 215.866,286.484 c -1.385,49.516 0.348,99.377 5.193,111.495 4.848,12.118 15.223,35.688 50.9,28.045 29.806,-6.39 40.651,-18.756 45.357,-46.051 3.466,-20.082 10.148,-75.854 11.005,-87.281"
         id="path2466"
         style="fill:#ffffff;fill-opacity:0;fill-rule:nonzero;stroke:#ffffff;stroke-width:12.46510029;stroke-linecap:round;stroke-linejoin:round;stroke-miterlimit:4;stroke-opacity:1" />
      <path
         inkscape:connector-curvature="0"
         d="m 173.104,38.256 c 0,0 -161.521,-66.016 -154.012,84.109 1.597,31.938 45.779,241.664 98.473,178.316 19.256,-23.166 36.671,-41.335 36.671,-41.335"
         id="path2468"
         style="fill:#ffffff;fill-opacity:0;fill-rule:nonzero;stroke:#ffffff;stroke-width:12.46510029;stroke-linecap:round;stroke-linejoin:round;stroke-miterlimit:4;stroke-opacity:1" />
      <path
         inkscape:connector-curvature="0"
         d="m 260.349,26.207 c -5.591,1.753 89.848,-34.889 144.087,34.417 19.159,24.484 -3.043,124.519 -56.153,203.329"
         id="path2470"
         style="fill:#ffffff;fill-opacity:0;fill-rule:nonzero;stroke:#ffffff;stroke-width:12.46510029;stroke-linecap:round;stroke-linejoin:round;stroke-miterlimit:4;stroke-opacity:1" />
      <path
         inkscape:connector-curvature="0"
         style="fill:#ffffff;fill-opacity:0;fill-rule:nonzero;stroke:#ffffff;stroke-width:12.46510029;stroke-linecap:round;stroke-linejoin:bevel;stroke-miterlimit:4;stroke-opacity:1"
         d="m 348.282,263.953 c 0,0 3.461,17.036 53.764,6.653 22.04,-4.552 8.776,12.774 -13.577,23.155 -18.345,8.514 -59.474,10.696 -60.146,-1.069 -1.729,-30.355 21.647,-21.133 19.96,-28.739 -1.525,-6.85 -11.979,-13.573 -18.894,-30.338 -6.037,-14.633 -82.796,-126.849 21.287,-110.183 3.813,-0.789 -27.146,-99.002 -124.553,-100.599 -97.385,-1.597 -94.19,119.762 -94.19,119.762"
         id="path2472" />
      <path
         inkscape:connector-curvature="0"
         d="m 188.604,274.334 c -13.577,15.166 -9.584,17.829 -36.723,23.417 -27.459,5.66 -11.326,15.733 -0.797,18.365 12.768,3.195 42.307,7.718 62.266,-20.229 6.078,-8.509 -0.036,-22.086 -8.385,-25.547 -4.034,-1.671 -9.428,-3.765 -16.361,3.994 l 0,0 z"
         id="path2474"
         style="fill:#ffffff;fill-opacity:0;fill-rule:nonzero;stroke:#ffffff;stroke-width:12.46510029;stroke-linecap:round;stroke-linejoin:round;stroke-miterlimit:4;stroke-opacity:1" />
      <path
         inkscape:connector-curvature="0"
         d="m 187.715,274.069 c -1.368,-8.917 2.93,-19.528 7.536,-31.942 6.922,-18.626 22.893,-37.255 10.117,-96.339 -9.523,-44.029 -73.396,-9.163 -73.436,-3.193 -0.039,5.968 2.889,30.26 -1.067,58.548 -5.162,36.913 23.488,68.132 56.479,64.938"
         id="path2476"
         style="fill:#ffffff;fill-opacity:0;fill-rule:nonzero;stroke:#ffffff;stroke-width:12.46510029;stroke-linecap:round;stroke-linejoin:round;stroke-miterlimit:4;stroke-opacity:1" />
      <path
         inkscape:connector-curvature="0"
         style="fill:#ffffff;fill-opacity:1;fill-rule:nonzero;stroke:#ffffff;stroke-width:4.15500021;stroke-linecap:butt;stroke-linejoin:miter;stroke-miterlimit:4;stroke-opacity:1"
         d="m 172.517,141.7 c -0.288,2.039 3.733,7.48 8.976,8.207 5.234,0.73 9.714,-3.522 9.998,-5.559 0.284,-2.039 -3.732,-4.285 -8.977,-5.015 -5.237,-0.731 -9.719,0.333 -9.996,2.367 l -0.001,0 z"
         id="path2478" />
      <path
         inkscape:connector-curvature="0"
         style="fill:#ffffff;fill-opacity:1;fill-rule:nonzero;stroke:#ffffff;stroke-width:2.0775001;stroke-linecap:butt;stroke-linejoin:miter;stroke-miterlimit:4;stroke-opacity:1"
         d="m 331.941,137.543 c 0.284,2.039 -3.732,7.48 -8.976,8.207 -5.238,0.73 -9.718,-3.522 -10.005,-5.559 -0.277,-2.039 3.74,-4.285 8.979,-5.015 5.239,-0.73 9.718,0.333 10.002,2.368 l 0,-0.001 z"
         id="path2480" />
      <path
         inkscape:connector-curvature="0"
         d="m 350.676,123.432 c 0.863,15.994 -3.445,26.888 -3.988,43.914 -0.804,24.748 11.799,53.074 -7.191,81.435"
         id="path2482"
         style="fill:#ffffff;fill-opacity:0;fill-rule:nonzero;stroke:#ffffff;stroke-width:12.46510029;stroke-linecap:round;stroke-linejoin:round;stroke-miterlimit:4;stroke-opacity:1" />
      <path
         inkscape:connector-curvature="0"
         d=""
         style="fill-rule:nonzero;stroke:#ffffff;stroke-width:3;stroke-linecap:round;stroke-linejoin:round;stroke-miterlimit:4"
         id="path2484" />
    </g>
  </g>
</svg>
