<?xml version="1.0" encoding="UTF-8" standalone="no"?>
<!-- Created with Inkscape (http://www.inkscape.org/) -->

<svg
   xmlns:dc="http://purl.org/dc/elements/1.1/"
   xmlns:cc="http://creativecommons.org/ns#"
   xmlns:rdf="http://www.w3.org/1999/02/22-rdf-syntax-ns#"
   xmlns:svg="http://www.w3.org/2000/svg"
   xmlns="http://www.w3.org/2000/svg"
   xmlns:xlink="http://www.w3.org/1999/xlink"
   xmlns:sodipodi="http://sodipodi.sourceforge.net/DTD/sodipodi-0.dtd"
   xmlns:inkscape="http://www.inkscape.org/namespaces/inkscape"
   width="210mm"
   height="297mm"
   id="svg9886"
   version="1.1"
   inkscape:version="0.48.3.1 r9886"
   sodipodi:docname="ex17.svg">
  <defs
     id="defs9888" />
  <sodipodi:namedview
     id="base"
     pagecolor="#ffffff"
     bordercolor="#666666"
     borderopacity="1.0"
     inkscape:pageopacity="0.0"
     inkscape:pageshadow="2"
     inkscape:zoom="0.49497475"
     inkscape:cx="446.97094"
     inkscape:cy="523.10463"
     inkscape:document-units="px"
     inkscape:current-layer="layer1"
     showgrid="false"
     showguides="true"
     inkscape:guide-bbox="true"
     inkscape:window-width="1215"
     inkscape:window-height="776"
     inkscape:window-x="65"
     inkscape:window-y="24"
     inkscape:window-maximized="1">
    <sodipodi:guide
       orientation="0,1"
       position="908.57143,1122.8571"
       id="guide9926" />
    <sodipodi:guide
       orientation="1,0"
       position="-394.28571,748.57143"
       id="guide10618" />
    <sodipodi:guide
       orientation="0,1"
       position="-565.71429,728.57143"
       id="guide10620" />
  </sodipodi:namedview>
  <metadata
     id="metadata9891">
    <rdf:RDF>
      <cc:Work
         rdf:about="">
        <dc:format>image/svg+xml</dc:format>
        <dc:type
           rdf:resource="http://purl.org/dc/dcmitype/StillImage" />
        <dc:title></dc:title>
      </cc:Work>
    </rdf:RDF>
  </metadata>
  <g
     inkscape:label="Calque 1"
     inkscape:groupmode="layer"
     id="layer1">
    <rect
       style="fill:#72bfe0;fill-opacity:1;stroke:none"
       id="rect9894"
       width="680.00031"
       height="690.79456"
       x="59.366211"
       y="92.873413" />
    <path
       sodipodi:type="star"
       style="fill:#d02929;fill-opacity:1;stroke:none"
       id="path9896"
       sodipodi:sides="18"
       sodipodi:cx="194.28571"
       sodipodi:cy="272.36218"
       sodipodi:r1="230.31477"
       sodipodi:r2="307.08636"
       sodipodi:arg1="0.78539816"
       sodipodi:arg2="0.95993109"
       inkscape:flatsided="false"
       inkscape:rounded="0"
       inkscape:randomized="0"
       d="m 357.14284,435.21932 13.28037,88.69329 -78.80227,-42.81435 -17.85544,87.88657 -59.40654,-67.18429 -46.8376,76.47945 -32.8455,-83.45082 -70.17046,55.84778 -2.322821,-89.65195 -85.039725,28.48003 28.4800344,-85.03972 -89.6519464,-2.32282 55.847776,-70.17046 -83.450818,-32.84551 76.479449,-46.83759 -67.184289,-59.40655 87.886572,-17.85543 -42.81435,-78.80227 88.693285,13.28036 -13.280364,-88.693281 78.802273,42.814351 17.855434,-87.886578 59.40654,67.184294 46.8376,-76.479452 32.8455,83.45082 70.17046,-55.8477749 2.32282,89.6519459 85.03973,-28.480033 -28.48004,85.039718 89.65195,2.32283 -55.84778,70.17045 83.45082,32.84551 -76.47945,46.8376 67.1843,59.40654 -87.88658,17.85543 42.81435,78.80228 z"
       inkscape:transform-center-x="5.1278994"
       inkscape:transform-center-y="-5.2988473"
       transform="matrix(0.79742638,0,0,0.8240091,236.82271,213.89272)" />
    <path
       sodipodi:type="arc"
       style="fill:none;fill-opacity:1;stroke:none"
       id="path9898"
       sodipodi:cx="-231.42857"
       sodipodi:cy="403.79074"
       sodipodi:rx="294.28571"
       sodipodi:ry="294.28571"
       d="m 62.857132,403.79074 a 294.28571,294.28571 0 1 1 -588.571412,0 294.28571,294.28571 0 1 1 588.571412,0 z"
       transform="translate(-37.142857,37.142857)" />
    <text
       xml:space="preserve"
       style="font-size:40px;font-style:normal;font-weight:normal;line-height:125%;letter-spacing:0px;word-spacing:0px;fill:#eeeeec;fill-opacity:1;stroke:none;font-family:Sans"
       id="text9908"
       sodipodi:linespacing="125%"
       transform="matrix(-1,0,0,-1,-1398.4928,750.21012)"><textPath
         xlink:href="#path9898"
         id="textPath9918"><tspan
   id="tspan9910"
   style="fill:#eeeeec"><tspan
     id="tspan9912"
     y="-79.192535"
     x="-537.15625"
     style="fill:#eeeeec">meuh meuh meuh meuh meuh meuh meuh meuh meuh meuh meuh </tspan></tspan><tspan
   id="tspan9914"
   style="fill:#eeeeec"><tspan
     id="tspan9916"
     x="-537.15625"
     style="fill:#eeeeec">meuh meuh meuh meuh meuh meuh meuh meuh meuh meuh meuh </tspan></tspan></textPath></text>
    <path
       style="fill:#2e3436;fill-opacity:1;stroke:none"
       d="m 365.35714,353.46932 151.42858,17.14286 2.85714,108.57143 -154.28572,60 z"
       id="rect9928"
       inkscape:connector-curvature="0"
       sodipodi:nodetypes="ccccc" />
    <path
       sodipodi:nodetypes="ccccc"
       inkscape:connector-curvature="0"
       id="path9931"
       d="m 365.71429,353.50504 -98.14816,17.14286 -1.85185,108.57143 100.00001,60 z"
       style="fill:#2e3436;fill-opacity:1;stroke:none" />
    <g
       id="g10497"
       style="fill:#2e3436">
      <path
         sodipodi:nodetypes="ccscscaacc"
         inkscape:connector-curvature="0"
         id="path10489"
         d="m 344.28571,348.07647 9.28572,-9.28572 c 0,0 1.22055,-7.45664 -1.07143,-9.82143 -4.10687,-4.23733 -14.64286,-5.17857 -14.64286,-5.17857 0,0 4.78021,-5.41189 7.85715,-5 7.19526,0.96318 15,5 15,5 0,0 2.49648,14.73619 0,21.42857 -1.65179,4.428 -5.97532,7.34132 -9.28572,10.71429 -2.24373,2.28614 -7.14286,6.42857 -7.14286,6.42857 z"
         style="fill:#2e3436;stroke:none" />
      <path
         inkscape:connector-curvature="0"
         id="path10491"
         d="m 347.14285,347.36218 -80.6746,14.84376 -0.75396,8.90624 81.42856,-12.61718"
         style="fill:#2e3436;stroke:none" />
      <path
         style="fill:#2e3436;stroke:none"
         d="m 268.60956,362.18361 -9.28572,-9.28572 c 0,0 -1.22055,-7.45664 1.07143,-9.82143 4.10687,-4.23733 14.64286,-5.17857 14.64286,-5.17857 0,0 -4.78021,-5.41189 -7.85715,-5 -7.19526,0.96318 -15,5 -15,5 0,0 -2.49648,14.73619 0,21.42857 1.65179,4.428 5.97532,7.34132 9.28572,10.71429 2.24373,2.28614 7.14286,6.42857 7.14286,6.42857 z"
         id="path10495"
         inkscape:connector-curvature="0"
         sodipodi:nodetypes="ccscscaacc" />
    </g>
    <path
       style="fill:#2e3436;stroke:none"
       d="m 268.44083,367.09433 c 0,0 -8.96946,13.61835 -14.84009,16.96763 -3.81976,2.17925 -8.79386,-1.65408 -12.28145,1.47545 -3.37761,3.03087 -5.18387,9.68258 -6.14072,14.75448 4.227,2.56543 9.01919,-5.44071 9.01919,-5.44071 4.26238,-1.61622 7.83783,4.0665 11.44989,3.96526 4.18799,-0.36459 11.258,-8.11496 11.258,-8.11496 l 2.55864,-15.4922 z"
       id="path10586"
       inkscape:connector-curvature="0"
       sodipodi:nodetypes="caacccccc" />
    <path
       inkscape:connector-curvature="0"
       id="path10504"
       d="m 266.66694,376.28916 69.21494,-6.29774 -1.45867,26.78069 -54.31868,0 -1.4587,20.35515 53.23411,-0.78722 0,20.48298 -52.50477,-0.78722 2.18802,23.28553 54.29472,1.57442 -2.91737,40.16343 -66.2736,-25.97817 0,-98.79185"
       style="font-size:40px;font-style:normal;font-weight:bold;line-height:125%;letter-spacing:0px;word-spacing:0px;fill:#ffffff;fill-opacity:1;stroke:none;font-family:Sans;-inkscape-font-specification:Sans Bold" />
    <path
       inkscape:connector-curvature="0"
       id="path10487"
       d="m 312.11313,355.49 1.64579,6.78565 -18.20212,5.78953 -0.0163,-10.71433 15.85998,-1.86089"
       style="font-size:40px;font-style:normal;font-weight:bold;line-height:125%;letter-spacing:0px;word-spacing:0px;fill:#ffffff;fill-opacity:1;stroke:none;font-family:Sans;-inkscape-font-specification:Sans Bold" />
    <g
       transform="matrix(1.4277053,-0.44307196,0.3796877,1.7622286,860.24113,-1097.1193)"
       inkscape:transform-center-x="-26.498975"
       inkscape:transform-center-y="-20.704541"
       style="font-size:40px;font-style:normal;font-weight:bold;line-height:125%;letter-spacing:0px;word-spacing:0px;fill:#eeeeec;fill-opacity:1;stroke:none;font-family:Sans;-inkscape-font-specification:Sans Bold"
       id="flowRoot10449">
      <path
         d="m -550.60937,731.64731 9.57031,0 6.64062,15.60547 5.87138,-12.56605 9.3426,-1.26834 1.01649,27.38908 -7.10937,0 0,-21.32813 -6.71875,15.72266 -4.76563,0 -6.71875,-15.72266 0,21.32813 -7.1289,0 0,-29.16016"
         id="path10478"
         inkscape:connector-curvature="0"
         sodipodi:nodetypes="cccccccccccccc" />
      <path
         d="m -510.76562,731.64731 7.51953,0 0,29.16016 -7.51953,0 0,-29.16016"
         id="path10480"
         inkscape:connector-curvature="0" />
      <path
         d="m -496.90911,717.19287 7.62667,1.64826 0.95822,36.28274 13.20313,0 0,5.6836 -20.72266,0 -1.47563,-44.12308"
         id="path10482"
         inkscape:connector-curvature="0"
         sodipodi:nodetypes="ccccccc" />
      <path
         d="m -470.375,731.64731 20.29297,0 -0.61234,5.93496 -11.85798,-1.39115 -0.30312,6.56947 12.01172,0 0,5.6836 -11.50653,-1.89964 -0.50519,8.57932 12.69794,1.89964 0.50519,3.78396 -20.72266,0 0,-29.16016"
         id="path10484"
         inkscape:connector-curvature="0"
         sodipodi:nodetypes="ccccccccccccc" />
    </g>
    <flowRoot
       xml:space="preserve"
       id="flowRoot10461"
       style="font-size:40px;font-style:normal;font-weight:bold;line-height:125%;letter-spacing:0px;word-spacing:0px;fill:#ffffff;fill-opacity:1;stroke:none;font-family:Sans;-inkscape-font-specification:Sans Bold"
       transform="matrix(0.63843603,-0.20869745,0.20869745,0.63843603,556.6569,-107.16819)"><flowRegion
         id="flowRegion10463"><rect
           id="rect10465"
           width="451.42856"
           height="105.71429"
           x="-557.14288"
           y="749.50507"
           style="font-weight:bold;fill:#ffffff;-inkscape-font-specification:Sans Bold;fill-opacity:1" /></flowRegion><flowPara
         id="flowPara10467">une vache</flowPara></flowRoot>    <flowRoot
       xml:space="preserve"
       id="flowRoot10469"
       style="font-size:40px;font-style:normal;font-weight:bold;line-height:125%;letter-spacing:0px;word-spacing:0px;fill:#ffffff;fill-opacity:1;stroke:none;font-family:Sans;-inkscape-font-specification:Sans Bold"
       transform="matrix(0.52125692,-0.10798318,0.08365496,0.67284692,237.79342,60.827823)"><flowRegion
         id="flowRegion10471"><rect
           id="rect10473"
           width="44.285713"
           height="50"
           x="223.57143"
           y="519.50507"
           style="font-weight:bold;fill:#ffffff;-inkscape-font-specification:Sans Bold;fill-opacity:1" /></flowRegion><flowPara
         id="flowPara10475">A</flowPara></flowRoot>    <path
       style="fill:#2e3436;stroke:none"
       d="m 373.47417,526.46933 c 0,0 15.05979,28.90789 8.57143,41.42857 -5.07777,9.79864 -30.35714,13.21428 -30.35714,13.21428 l 6.07143,-13.21428 -16.42857,-1.42858 c 0,0 16.48726,-7.89375 17.85714,-11.42856 2.62609,-6.77631 0,-28.57143 0,-28.57143 z"
       id="path10508"
       inkscape:connector-curvature="0"
       sodipodi:nodetypes="cacccscc" />
    <path
       style="fill:#2e3436;stroke:none"
       d="m 283.11703,480.75504 c 0,0 15.05979,28.90789 8.57143,41.42857 -5.07777,9.79864 -30.35714,13.21428 -30.35714,13.21428 l 6.07143,-13.21428 -16.42857,-1.42858 c 0,0 16.48726,-7.89375 17.85714,-11.42856 2.62609,-6.77631 0,-28.57143 0,-28.57143 z"
       id="path10508-6"
       inkscape:connector-curvature="0"
       sodipodi:nodetypes="cacccscc" />
    <path
       style="fill:#2e3436;stroke:none"
       d="m 520.25989,475.75505 c 0,0 15.05979,28.90789 8.57143,41.42857 -5.07777,9.79864 -30.35714,13.21428 -30.35714,13.21428 l 6.07143,-13.21428 -16.42857,-1.42858 c 0,0 16.48726,-7.89375 17.85714,-11.42856 2.62609,-6.77631 0,-28.57143 0,-28.57143 z"
       id="path10508-3"
       inkscape:connector-curvature="0"
       sodipodi:nodetypes="cacccscc" />
    <path
       sodipodi:type="arc"
       style="fill:#2e3436;fill-opacity:1;stroke:none"
       id="path10542"
       sodipodi:cx="482.85715"
       sodipodi:cy="490.21933"
       sodipodi:rx="17.142857"
       sodipodi:ry="7.8571429"
       d="m 500,490.21933 a 17.142857,7.8571429 0 1 1 -34.28571,0 17.142857,7.8571429 0 1 1 34.28571,0 z"
       transform="matrix(1.3333333,0,0,1.4090909,-153.80954,-199.47283)" />
    <path
       sodipodi:type="arc"
       style="fill:#2e3436;fill-opacity:1;stroke:none"
       id="path10547"
       sodipodi:cx="477.14285"
       sodipodi:cy="502.00504"
       sodipodi:rx="3.5714285"
       sodipodi:ry="5.3571429"
       d="m 480.71428,502.00504 a 3.5714285,5.3571429 0 1 1 -7.14286,0 3.5714285,5.3571429 0 1 1 7.14286,0 z" />
    <path
       sodipodi:type="arc"
       style="fill:#2e3436;fill-opacity:1;stroke:none"
       id="path10549"
       sodipodi:cx="487.85715"
       sodipodi:cy="502.00504"
       sodipodi:rx="2.8571429"
       sodipodi:ry="3.9285715"
       d="m 490.71429,502.00504 a 2.8571429,3.9285715 0 1 1 -5.71429,0 2.8571429,3.9285715 0 1 1 5.71429,0 z" />
    <path
       sodipodi:type="arc"
       style="fill:#2e3436;fill-opacity:1;stroke:none"
       id="path10551"
       sodipodi:cx="496.42856"
       sodipodi:cy="502.36218"
       sodipodi:rx="1.4285715"
       sodipodi:ry="4.2857141"
       d="m 497.85713,502.36218 a 1.4285715,4.2857141 0 1 1 -2.85714,0 1.4285715,4.2857141 0 1 1 2.85714,0 z" />
    <path
       style="fill:#2e3436;stroke:none"
       d="m 496.60714,375.21932 c 0,0 27.82996,-2.91516 34.10715,-13.39285 2.09453,-3.49613 0.31339,-8.45837 -1.42858,-12.14286 -1.87131,-3.95807 -11.00018,-5.51657 -9.10714,-9.46429 2.29985,-4.79606 25.24,-9.88319 15.89285,1.42858 2.24539,8.00908 4.49475,5.47709 4.10715,14.46428 1.20882,14.23871 -12.80673,17.39062 -22.14286,21.96429 -4.95944,2.42957 -16.42857,2.14285 -16.42857,2.14285"
       id="path10553"
       inkscape:connector-curvature="0"
       sodipodi:nodetypes="caaaccac" />
    <path
       style="fill:#2e3436;stroke:none"
       d="m 529.57967,349.5981 c 0,0 -7.64432,-4.44386 -12.25635,-4.96753 -13.86397,-1.57417 -9.70419,-17.74426 -1.42977,-25.60415 1.96284,7.20264 12.18888,10.68236 12.18888,10.68236 0,0 1.94431,-7.59224 7.63078,-14.61882 5.61463,6.10134 4.88209,21.11177 1.54786,23.73459 -5.71191,4.49319 -2.90713,9.90568 -2.90713,9.90568 z"
       id="path10508-4"
       inkscape:connector-curvature="0"
       sodipodi:nodetypes="cscccscc" />
    <path
       style="fill:#2e3436;stroke:none"
       d="m 357.3489,357.8469 c 0,0 6.56669,-21.861 14.19013,-27.47701 9.53826,-7.02661 33.38857,-3.29723 33.38857,-3.29723 l -0.83472,3.03584 -16.39926,6.54289 -4.25991,21.86419"
       id="path10573"
       inkscape:connector-curvature="0"
       sodipodi:nodetypes="cacccc" />
    <g
       id="g10921"
       transform="matrix(0.92330166,0,0,0.89727229,564.36319,160.94824)">
      <g
         style="stroke:none"
         transform="translate(204.28571,-7.2043584)"
         id="g10691">
        <path
           style="fill:none;stroke:none"
           d="m -721.42857,323.79075 c 53.11667,268.54193 188.13466,305.6236 327.14286,331.42858"
           id="path10624"
           inkscape:connector-curvature="0"
           sodipodi:nodetypes="cc" />
        <text
           xml:space="preserve"
           style="font-size:40px;font-style:normal;font-weight:normal;line-height:125%;letter-spacing:0px;word-spacing:0px;fill:#eeeeec;fill-opacity:1;stroke:none;font-family:Sans"
           id="text10634"
           sodipodi:linespacing="125%"><textPath
             xlink:href="#path10624"
             id="textPath10640"><tspan
   style="stroke:none"
   id="tspan10636"><tspan
     style="stroke:none"
     id="tspan10638"
     y="726.52625"
     x="-662.84375">meuh meuh meuh meuh meuh</tspan></tspan></textPath></text>
        <text
           sodipodi:linespacing="125%"
           id="text10651"
           style="font-size:40px;font-style:normal;font-weight:normal;line-height:125%;letter-spacing:0px;word-spacing:0px;fill:#eeeeec;fill-opacity:1;stroke:none;font-family:Sans"
           xml:space="preserve"
           inkscape:transform-center-x="-166.55992"
           inkscape:transform-center-y="166.03192"
           transform="matrix(-0.00759373,-0.99997117,0.99997117,-0.00759373,-719.80504,-63.290559)"><textPath
             id="textPath10653"
             xlink:href="#path10624"><tspan
   style="stroke:none"
   id="tspan10655"><tspan
     style="stroke:none"
     x="-662.84375"
     y="726.52625"
     id="tspan10657">meuh meuh meuh meuh meuh</tspan></tspan></textPath></text>
        <path
           sodipodi:nodetypes="cc"
           inkscape:connector-curvature="0"
           id="path10673"
           d="m -721.42857,323.79075 c 53.11667,268.54193 188.13466,305.6236 327.14286,331.42858"
           style="fill:none;stroke:none" />
        <text
           sodipodi:linespacing="125%"
           id="text10675"
           style="font-size:40px;font-style:normal;font-weight:normal;line-height:125%;letter-spacing:0px;word-spacing:0px;fill:#ffffff;fill-opacity:1;stroke:none;font-family:Sans"
           xml:space="preserve"><textPath
             id="textPath10677"
             xlink:href="#path10624"><tspan
   style="stroke:none;fill:#ffffff;fill-opacity:1"
   id="tspan10679"><tspan
     style="stroke:none;fill:#ffffff;fill-opacity:1"
     x="-662.84375"
     y="726.52625"
     id="tspan10681">meuh meuh meuh meuh meuh</tspan></tspan></textPath></text>
        <text
           transform="matrix(-0.00759373,-0.99997117,0.99997117,-0.00759373,-719.80504,-63.290559)"
           inkscape:transform-center-y="166.03192"
           inkscape:transform-center-x="-166.55992"
           xml:space="preserve"
           style="font-size:40px;font-style:normal;font-weight:normal;line-height:125%;letter-spacing:0px;word-spacing:0px;fill:#ffffff;fill-opacity:1;stroke:none;font-family:Sans"
           id="text10683"
           sodipodi:linespacing="125%"><textPath
             xlink:href="#path10624"
             id="textPath10685"><tspan
   style="stroke:none;fill:#ffffff;fill-opacity:1"
   id="tspan10687"><tspan
     style="stroke:none;fill:#ffffff;fill-opacity:1"
     id="tspan10689"
     y="726.52625"
     x="-662.84375">meuh meuh meuh meuh meuh</tspan></tspan></textPath></text>
      </g>
      <g
         style="stroke:none"
         inkscape:transform-center-x="0.043409741"
         transform="matrix(-0.99998359,0.00572913,-0.00572913,-0.99998359,-579.26835,640.10929)"
         inkscape:transform-center-y="-167.47159"
         id="g10711">
        <path
           sodipodi:nodetypes="cc"
           inkscape:connector-curvature="0"
           id="path10713"
           d="m -721.42857,323.79075 c 53.11667,268.54193 188.13466,305.6236 327.14286,331.42858"
           style="fill:none;stroke:none" />
        <text
           sodipodi:linespacing="125%"
           id="text10715"
           style="font-size:40px;font-style:normal;font-weight:normal;line-height:125%;letter-spacing:0px;word-spacing:0px;fill:#eeeeec;fill-opacity:1;stroke:none;font-family:Sans"
           xml:space="preserve"><textPath
             id="textPath10717"
             xlink:href="#path10624"><tspan
   style="stroke:none"
   id="tspan10719"><tspan
     style="stroke:none"
     x="-662.84375"
     y="726.52625"
     id="tspan10721">meuh meuh meuh meuh meuh</tspan></tspan></textPath></text>
        <text
           transform="matrix(-0.00759373,-0.99997117,0.99997117,-0.00759373,-719.80504,-63.290559)"
           inkscape:transform-center-y="166.03192"
           inkscape:transform-center-x="-166.55992"
           xml:space="preserve"
           style="font-size:40px;font-style:normal;font-weight:normal;line-height:125%;letter-spacing:0px;word-spacing:0px;fill:#eeeeec;fill-opacity:1;stroke:none;font-family:Sans"
           id="text10723"
           sodipodi:linespacing="125%"><textPath
             xlink:href="#path10624"
             id="textPath10725"><tspan
   style="stroke:none"
   id="tspan10727"><tspan
     style="stroke:none"
     id="tspan10729"
     y="726.52625"
     x="-662.84375">meuh meuh meuh meuh meuh</tspan></tspan></textPath></text>
        <path
           style="fill:none;stroke:none"
           d="m -721.42857,323.79075 c 53.11667,268.54193 188.13466,305.6236 327.14286,331.42858"
           id="path10731"
           inkscape:connector-curvature="0"
           sodipodi:nodetypes="cc" />
        <text
           xml:space="preserve"
           style="font-size:40px;font-style:normal;font-weight:normal;line-height:125%;letter-spacing:0px;word-spacing:0px;fill:#ffffff;fill-opacity:1;stroke:none;font-family:Sans"
           id="text10733"
           sodipodi:linespacing="125%"><textPath
             xlink:href="#path10624"
             id="textPath10735"><tspan
   style="stroke:none;fill:#ffffff;fill-opacity:1"
   id="tspan10737"><tspan
     style="stroke:none;fill:#ffffff;fill-opacity:1"
     id="tspan10739"
     y="726.52625"
     x="-662.84375">meuh meuh meuh meuh meuh</tspan></tspan></textPath></text>
        <text
           sodipodi:linespacing="125%"
           id="text10741"
           style="font-size:40px;font-style:normal;font-weight:normal;line-height:125%;letter-spacing:0px;word-spacing:0px;fill:#ffffff;fill-opacity:1;stroke:none;font-family:Sans"
           xml:space="preserve"
           inkscape:transform-center-x="-166.55992"
           inkscape:transform-center-y="166.03192"
           transform="matrix(-0.00759373,-0.99997117,0.99997117,-0.00759373,-719.80504,-63.290559)"><textPath
             id="textPath10743"
             xlink:href="#path10624"><tspan
   style="stroke:none;fill:#ffffff;fill-opacity:1"
   id="tspan10745"><tspan
     style="stroke:none;fill:#ffffff;fill-opacity:1"
     x="-662.84375"
     y="726.52625"
     id="tspan10747">meuh meuh meuh meuh meuh</tspan></tspan></textPath></text>
      </g>
    </g>
  </g>
</svg>
