<?xml version="1.0" encoding="UTF-8" standalone="no"?>
<!-- Created with Inkscape (http://www.inkscape.org/) -->

<svg
   xmlns:dc="http://purl.org/dc/elements/1.1/"
   xmlns:cc="http://creativecommons.org/ns#"
   xmlns:rdf="http://www.w3.org/1999/02/22-rdf-syntax-ns#"
   xmlns:svg="http://www.w3.org/2000/svg"
   xmlns="http://www.w3.org/2000/svg"
   xmlns:xlink="http://www.w3.org/1999/xlink"
   xmlns:sodipodi="http://sodipodi.sourceforge.net/DTD/sodipodi-0.dtd"
   xmlns:inkscape="http://www.inkscape.org/namespaces/inkscape"
   width="210mm"
   height="297mm"
   id="svg4103"
   version="1.1"
   inkscape:version="0.48.4 r9939"
   sodipodi:docname="ex18.svg">
  <defs
     id="defs4105">
    <linearGradient
       id="linearGradient4958">
      <stop
         style="stop-color:#fff9f9;stop-opacity:1;"
         offset="0"
         id="stop4960" />
      <stop
         id="stop4962"
         offset="0.5256179"
         style="stop-color:#ffffff;stop-opacity:1;" />
      <stop
         id="stop4964"
         offset="1"
         style="stop-color:#d4d4d4;stop-opacity:1;" />
    </linearGradient>
    <linearGradient
       id="linearGradient4874">
      <stop
         style="stop-color:#3364a4;stop-opacity:1;"
         offset="0"
         id="stop4876" />
      <stop
         id="stop4882"
         offset="0.99004817"
         style="stop-color:#1f4a87;stop-opacity:1" />
      <stop
         style="stop-color:#3364a4;stop-opacity:0;"
         offset="1"
         id="stop4878" />
    </linearGradient>
    <linearGradient
       id="linearGradient4866">
      <stop
         style="stop-color:#1b4181;stop-opacity:1;"
         offset="0"
         id="stop4868" />
      <stop
         style="stop-color:#1d4145;stop-opacity:1;"
         offset="1"
         id="stop4870" />
    </linearGradient>
    <linearGradient
       id="linearGradient4666">
      <stop
         id="stop4954"
         offset="0"
         style="stop-color:#fff9f9;stop-opacity:1;" />
      <stop
         style="stop-color:#ffffff;stop-opacity:1;"
         offset="0.75"
         id="stop4956" />
      <stop
         style="stop-color:#9c9c9c;stop-opacity:1;"
         offset="1"
         id="stop4670" />
    </linearGradient>
    <linearGradient
       inkscape:collect="always"
       xlink:href="#linearGradient4958"
       id="linearGradient4672"
       x1="111.59093"
       y1="223.91333"
       x2="115.83904"
       y2="273.58411"
       gradientUnits="userSpaceOnUse" />
    <linearGradient
       inkscape:collect="always"
       xlink:href="#linearGradient4666"
       id="linearGradient4674"
       x1="373.04926"
       y1="382.61908"
       x2="381.85791"
       y2="450.04187"
       gradientUnits="userSpaceOnUse" />
    <linearGradient
       inkscape:collect="always"
       xlink:href="#linearGradient4666"
       id="linearGradient4676"
       x1="365.97818"
       y1="289.15997"
       x2="375.8688"
       y2="383.10416"
       gradientUnits="userSpaceOnUse" />
    <linearGradient
       inkscape:collect="always"
       xlink:href="#linearGradient4666"
       id="linearGradient4678"
       x1="379.11017"
       y1="473.04779"
       x2="396.07184"
       y2="624.57068"
       gradientUnits="userSpaceOnUse" />
    <linearGradient
       inkscape:collect="always"
       xlink:href="#linearGradient4666"
       id="linearGradient4680"
       x1="367.9985"
       y1="567.51703"
       x2="398.09216"
       y2="700.85718"
       gradientUnits="userSpaceOnUse" />
    <linearGradient
       inkscape:collect="always"
       xlink:href="#linearGradient4666"
       id="linearGradient4682"
       x1="370.72598"
       y1="659.41284"
       x2="388.90872"
       y2="776.59058"
       gradientUnits="userSpaceOnUse" />
    <linearGradient
       inkscape:collect="always"
       xlink:href="#linearGradient4666"
       id="linearGradient4684"
       x1="372.03909"
       y1="755.44543"
       x2="397.082"
       y2="881.71454"
       gradientUnits="userSpaceOnUse" />
    <filter
       inkscape:collect="always"
       id="filter4802">
      <feGaussianBlur
         inkscape:collect="always"
         stdDeviation="1.9364625"
         id="feGaussianBlur4804" />
    </filter>
    <linearGradient
       inkscape:collect="always"
       xlink:href="#linearGradient4874"
       id="linearGradient4880"
       x1="317.14285"
       y1="-53.352104"
       x2="337.14285"
       y2="1109.505"
       gradientUnits="userSpaceOnUse" />
    <filter
       inkscape:collect="always"
       id="filter4926"
       x="-0.052397143"
       width="1.1047943"
       y="-0.24657478"
       height="1.4931496">
      <feGaussianBlur
         inkscape:collect="always"
         stdDeviation="12.475511"
         id="feGaussianBlur4928" />
    </filter>
    <filter
       inkscape:collect="always"
       id="filter4930"
       x="-0.052397143"
       width="1.1047943"
       y="-0.24657478"
       height="1.4931496">
      <feGaussianBlur
         inkscape:collect="always"
         stdDeviation="12.475511"
         id="feGaussianBlur4932" />
    </filter>
    <filter
       inkscape:collect="always"
       id="filter4934"
       x="-0.052397143"
       width="1.1047943"
       y="-0.24657478"
       height="1.4931496">
      <feGaussianBlur
         inkscape:collect="always"
         stdDeviation="12.475511"
         id="feGaussianBlur4936" />
    </filter>
    <filter
       inkscape:collect="always"
       id="filter4938"
       x="-0.052397143"
       width="1.1047943"
       y="-0.24657478"
       height="1.4931496">
      <feGaussianBlur
         inkscape:collect="always"
         stdDeviation="12.475511"
         id="feGaussianBlur4940" />
    </filter>
    <filter
       inkscape:collect="always"
       id="filter4942"
       x="-0.052397142"
       width="1.1047943"
       y="-0.24657478"
       height="1.4931496">
      <feGaussianBlur
         inkscape:collect="always"
         stdDeviation="12.475511"
         id="feGaussianBlur4944" />
    </filter>
    <filter
       inkscape:collect="always"
       id="filter4946"
       x="-0.052397142"
       width="1.1047943"
       y="-0.24657478"
       height="1.4931496">
      <feGaussianBlur
         inkscape:collect="always"
         stdDeviation="12.475511"
         id="feGaussianBlur4948" />
    </filter>
    <filter
       inkscape:collect="always"
       id="filter4950"
       x="-0.052397142"
       width="1.1047943"
       y="-0.24657478"
       height="1.4931496">
      <feGaussianBlur
         inkscape:collect="always"
         stdDeviation="12.475511"
         id="feGaussianBlur4952" />
    </filter>
  </defs>
  <sodipodi:namedview
     id="base"
     pagecolor="#ffffff"
     bordercolor="#666666"
     borderopacity="1.0"
     inkscape:pageopacity="0.0"
     inkscape:pageshadow="2"
     inkscape:zoom="0.35"
     inkscape:cx="485.00367"
     inkscape:cy="1001.6646"
     inkscape:document-units="px"
     inkscape:current-layer="layer1"
     showgrid="false"
     inkscape:window-width="1144"
     inkscape:window-height="742"
     inkscape:window-x="134"
     inkscape:window-y="24"
     inkscape:window-maximized="0" />
  <metadata
     id="metadata4108">
    <rdf:RDF>
      <cc:Work
         rdf:about="">
        <dc:format>image/svg+xml</dc:format>
        <dc:type
           rdf:resource="http://purl.org/dc/dcmitype/StillImage" />
        <dc:title />
      </cc:Work>
    </rdf:RDF>
  </metadata>
  <g
     inkscape:label="Calque 1"
     inkscape:groupmode="layer"
     id="layer1">
    <rect
       style="fill:url(#linearGradient4880);fill-opacity:1.0;stroke:#000000;stroke-width:2.79999995000000013;stroke-miterlimit:4;stroke-opacity:1;stroke-dasharray:none"
       id="rect4864"
       width="854.28571"
       height="1157.1428"
       x="-77.14286"
       y="-67.637817" />
    <path
       sodipodi:nodetypes="cccccc"
       inkscape:connector-curvature="0"
       id="path4142"
       d="m 657.14288,176.36218 -574.45904,-52.02031 39.39595,38.74475 -39.39595,32.68383 574.45904,52.02031 z"
       style="fill:#81cdc0;fill-opacity:1;stroke-width:2.41653538;stroke-miterlimit:4" />
    <path
       transform="translate(34.345187,-52.527932)"
       d="m 402.04072,166.4584 a 71.720833,71.720833 0 1 1 -143.44167,0 71.720833,71.720833 0 1 1 143.44167,0 z"
       sodipodi:ry="71.720833"
       sodipodi:rx="71.720833"
       sodipodi:cy="166.4584"
       sodipodi:cx="330.31989"
       id="path4756"
       style="fill:none;fill-opacity:1;stroke:#000000;stroke-width:2.79999999999999982;stroke-miterlimit:4;stroke-opacity:1;stroke-dasharray:none;filter:url(#filter4802)"
       sodipodi:type="arc" />
    <path
       sodipodi:nodetypes="ccccc"
       inkscape:connector-curvature="0"
       id="path4144"
       d="m 657.14288,268.81116 -571.428582,-50 0,71.42858 571.428582,50 z"
       style="fill:#81cdc0;stroke-width:2.41653538000000001;stroke-miterlimit:4;fill-opacity:1" />
    <path
       sodipodi:nodetypes="ccccc"
       inkscape:connector-curvature="0"
       id="path4146"
       d="m 657.14288,361.26013 -571.428582,-50 0,71.42858 571.428582,50 z"
       style="fill:#81cdc0;stroke-width:2.41653538000000001;stroke-miterlimit:4;fill-opacity:1" />
    <path
       sodipodi:nodetypes="ccccc"
       inkscape:connector-curvature="0"
       id="path4148"
       d="m 657.14288,453.70914 -571.428582,-50 0,71.42858 571.428582,50 z"
       style="fill:#81cdc0;stroke-width:2.41653538000000001;stroke-miterlimit:4;fill-opacity:1" />
    <path
       sodipodi:nodetypes="ccccc"
       inkscape:connector-curvature="0"
       id="path4150"
       d="m 657.14288,546.15811 -571.428592,-50 0,71.42858 571.428592,50 z"
       style="fill:#81cdc0;stroke-width:2.41653538000000001;stroke-miterlimit:4;fill-opacity:1" />
    <path
       sodipodi:nodetypes="ccccc"
       inkscape:connector-curvature="0"
       id="path4152"
       d="m 657.14288,638.60709 -571.428592,-50 0,71.42858 571.428592,50 z"
       style="fill:#81cdc0;stroke-width:2.41653538000000001;stroke-miterlimit:4;fill-opacity:1" />
    <path
       sodipodi:nodetypes="ccccc"
       inkscape:connector-curvature="0"
       id="path4154"
       d="m 657.14288,731.05606 -571.428592,-50 0,71.42858 571.428592,50 z"
       style="fill:#81cdc0;stroke-width:2.41653538000000001;stroke-miterlimit:4;fill-opacity:1" />
    <path
       style="fill:#81cdc0;fill-opacity:1;stroke-width:2.41653538;stroke-miterlimit:4"
       d="m 657.14288,823.50504 -571.428582,-50 0,71.42858 571.428582,50 -39.39595,-37.7346 z"
       id="path4156"
       inkscape:connector-curvature="0"
       sodipodi:nodetypes="cccccc" />
    <path
       style="fill:url(#linearGradient4672);stroke-width:1.11700000000000021;stroke-miterlimit:4;stroke:#000000;stroke-opacity:1;stroke-dasharray:none;fill-opacity:1"
       d="m 85.714288,222.36218 571.428582,-50 0,71.42858 -571.428582,50 z"
       id="rect4111"
       inkscape:connector-curvature="0"
       sodipodi:nodetypes="ccccc" />
    <path
       style="fill:url(#linearGradient4676);stroke-width:1.11700000000000021;stroke-miterlimit:4;stroke:#000000;stroke-opacity:1;stroke-dasharray:none;fill-opacity:1"
       d="m 85.714288,314.81116 571.428582,-50 0,71.42858 -571.428582,50 z"
       id="path4130"
       inkscape:connector-curvature="0"
       sodipodi:nodetypes="ccccc" />
    <path
       style="fill:url(#linearGradient4674);stroke-width:1.11700000000000021;stroke-miterlimit:4;stroke:#000000;stroke-opacity:1;stroke-dasharray:none;fill-opacity:1"
       d="m 85.714288,407.26013 571.428582,-50 0,71.42858 -571.428582,50 z"
       id="path4132"
       inkscape:connector-curvature="0"
       sodipodi:nodetypes="ccccc" />
    <path
       style="fill:url(#linearGradient4678);stroke-width:1.11700000000000021;stroke-miterlimit:4;stroke:#000000;stroke-opacity:1;stroke-dasharray:none;fill-opacity:1"
       d="m 85.714288,499.70914 571.428582,-50 0,71.42858 -571.428582,50 z"
       id="path4134"
       inkscape:connector-curvature="0"
       sodipodi:nodetypes="ccccc" />
    <path
       style="fill:url(#linearGradient4680);stroke-width:1.11700000000000021;stroke-miterlimit:4;stroke:#000000;stroke-opacity:1;stroke-dasharray:none;fill-opacity:1"
       d="m 85.714288,592.15811 571.428592,-50 0,71.42858 -571.428592,50 z"
       id="path4136"
       inkscape:connector-curvature="0"
       sodipodi:nodetypes="ccccc" />
    <path
       style="fill:url(#linearGradient4682);stroke-width:1.11700000000000021;stroke-miterlimit:4;stroke:#000000;stroke-opacity:1;stroke-dasharray:none;fill-opacity:1"
       d="m 85.714288,684.60709 571.428592,-50 0,71.42858 -571.428592,50 z"
       id="path4138"
       inkscape:connector-curvature="0"
       sodipodi:nodetypes="ccccc" />
    <path
       style="fill:url(#linearGradient4684);stroke-width:1.11700000000000021;stroke-miterlimit:4;stroke:#000000;stroke-opacity:1;stroke-dasharray:none;fill-opacity:1"
       d="m 85.714288,777.05606 571.428592,-50 0,71.42858 -571.428592,50 z"
       id="path4140"
       inkscape:connector-curvature="0"
       sodipodi:nodetypes="ccccc" />
    <flowRoot
       xml:space="preserve"
       id="flowRoot4686"
       style="font-size:64px;font-style:normal;font-variant:normal;font-weight:bold;font-stretch:normal;line-height:125%;letter-spacing:0px;word-spacing:0px;fill:#204a87;fill-opacity:1;stroke:#ffffff;stroke-width:1.60000002;stroke-miterlimit:4;stroke-opacity:1;stroke-dasharray:none;font-family:Ubuntu;-inkscape-font-specification:Ubuntu Bold"
       transform="matrix(0.99602651,-0.08905723,0.08905723,0.99602651,-21.084417,8.7856313)"
       inkscape:transform-center-y="14.142136"><flowRegion
         id="flowRegion4688"><rect
           id="rect4690"
           width="499.97537"
           height="86.551125"
           x="165.71428"
           y="218.07646"
           style="font-size:64px;font-style:normal;font-variant:normal;font-weight:bold;font-stretch:normal;fill:#204a87;fill-opacity:1;stroke:#ffffff;stroke-width:1.60000002;stroke-miterlimit:4;stroke-opacity:1;stroke-dasharray:none;font-family:Ubuntu;-inkscape-font-specification:Ubuntu Bold" /></flowRegion><flowPara
         id="flowPara4692"
         style="font-size:64px;font-style:normal;font-variant:normal;font-weight:bold;font-stretch:normal;fill:#204a87;fill-opacity:1;font-family:Ubuntu;-inkscape-font-specification:Ubuntu Bold">INITATION À</flowPara></flowRoot>    <flowRoot
       xml:space="preserve"
       id="flowRoot4718"
       style="font-size:64px;font-style:normal;font-variant:normal;font-weight:bold;font-stretch:normal;line-height:125%;letter-spacing:0px;word-spacing:0px;fill:#204a87;fill-opacity:1;stroke:#ffffff;stroke-width:1.60000002;stroke-miterlimit:4;stroke-opacity:1;stroke-dasharray:none;font-family:Ubuntu;-inkscape-font-specification:Ubuntu Bold"
       transform="matrix(0.99602651,-0.08905723,0.08905723,0.99602651,-15.023502,101.71967)"
       inkscape:transform-center-y="14.142136"><flowRegion
         id="flowRegion4720"><rect
           id="rect4722"
           width="499.97537"
           height="86.551125"
           x="165.71428"
           y="218.07646"
           style="font-size:64px;font-style:normal;font-variant:normal;font-weight:bold;font-stretch:normal;fill:#204a87;fill-opacity:1;stroke:#ffffff;stroke-width:1.60000002;stroke-miterlimit:4;stroke-opacity:1;stroke-dasharray:none;font-family:Ubuntu;-inkscape-font-specification:Ubuntu Bold" /></flowRegion><flowPara
         id="flowPara4724"
         style="font-size:64px;font-style:normal;font-variant:normal;font-weight:bold;font-stretch:normal;fill:#204a87;fill-opacity:1;font-family:Ubuntu;-inkscape-font-specification:Ubuntu Bold">POSTGRESQL</flowPara></flowRoot>    <flowRoot
       xml:space="preserve"
       id="flowRoot4726"
       style="font-size:64px;font-style:normal;font-variant:normal;font-weight:bold;font-stretch:normal;line-height:125%;letter-spacing:0px;word-spacing:0px;fill:#204a87;fill-opacity:1;stroke:#ffffff;stroke-width:1.60000002;stroke-miterlimit:4;stroke-opacity:1;stroke-dasharray:none;font-family:Ubuntu;-inkscape-font-specification:Ubuntu Bold"
       transform="matrix(0.91862821,-0.08544136,0.08213685,0.95558615,-77.315468,397.47138)"
       inkscape:transform-center-y="13.567945"><flowRegion
         id="flowRegion4728"><rect
           id="rect4730"
           width="669.00665"
           height="101.66463"
           x="165.71428"
           y="218.07646"
           style="font-size:64px;font-style:normal;font-variant:normal;font-weight:bold;font-stretch:normal;fill:#204a87;fill-opacity:1;stroke:#ffffff;stroke-width:1.60000002;stroke-miterlimit:4;stroke-opacity:1;stroke-dasharray:none;font-family:Ubuntu;-inkscape-font-specification:Ubuntu Bold" /></flowRegion><flowPara
         id="flowPara4732"
         style="font-size:64px;font-style:normal;font-variant:normal;font-weight:bold;font-stretch:normal;fill:#204a87;fill-opacity:1;font-family:Ubuntu;-inkscape-font-specification:Ubuntu Bold">VENEZ NOMBREUX</flowPara></flowRoot>    <flowRoot
       xml:space="preserve"
       id="flowRoot4734"
       style="font-size:64px;font-style:normal;font-variant:normal;font-weight:bold;font-stretch:normal;line-height:125%;letter-spacing:0px;word-spacing:0px;fill:#204a87;fill-opacity:1;stroke:#ffffff;stroke-width:1.60000002;stroke-miterlimit:4;stroke-opacity:1;stroke-dasharray:none;font-family:Ubuntu;-inkscape-font-specification:Ubuntu Bold"
       transform="matrix(0.99602651,-0.08905723,0.08905723,0.99602651,-10.982892,473.45581)"
       inkscape:transform-center-y="14.14214"><flowRegion
         id="flowRegion4736"><rect
           id="rect4738"
           width="499.97537"
           height="86.551125"
           x="165.71428"
           y="218.07646"
           style="font-size:64px;font-style:normal;font-variant:normal;font-weight:bold;font-stretch:normal;fill:#204a87;fill-opacity:1;stroke:#ffffff;stroke-width:1.60000002;stroke-miterlimit:4;stroke-opacity:1;stroke-dasharray:none;font-family:Ubuntu;-inkscape-font-specification:Ubuntu Bold" /></flowRegion><flowPara
         id="flowPara4740"
         style="font-size:64px;font-style:normal;font-variant:normal;font-weight:bold;font-stretch:normal;fill:#204a87;fill-opacity:1;font-family:Ubuntu;-inkscape-font-specification:Ubuntu Bold">L'ENTRÉE EST</flowPara></flowRoot>    <flowRoot
       inkscape:transform-center-y="14.142136"
       transform="matrix(0.99602651,-0.08905723,0.08905723,0.99602651,43.565345,556.28831)"
       style="font-size:64px;font-style:normal;font-variant:normal;font-weight:bold;font-stretch:normal;line-height:125%;letter-spacing:0px;word-spacing:0px;fill:#204a87;fill-opacity:1;stroke:#ffffff;stroke-width:1.60000002;stroke-miterlimit:4;stroke-opacity:1;stroke-dasharray:none;font-family:Ubuntu;-inkscape-font-specification:Ubuntu Bold"
       id="flowRoot4694"
       xml:space="preserve"><flowRegion
         id="flowRegion4696"><rect
           style="font-size:64px;font-style:normal;font-variant:normal;font-weight:bold;font-stretch:normal;fill:#204a87;fill-opacity:1;stroke:#ffffff;stroke-width:1.60000002;stroke-miterlimit:4;stroke-opacity:1;stroke-dasharray:none;font-family:Ubuntu;-inkscape-font-specification:Ubuntu Bold"
           y="218.07646"
           x="165.71428"
           height="86.551125"
           width="499.97537"
           id="rect4698" /></flowRegion><flowPara
         style="font-size:64px;font-style:normal;font-variant:normal;font-weight:bold;font-stretch:normal;fill:#204a87;fill-opacity:1;font-family:Ubuntu;-inkscape-font-specification:Ubuntu Bold"
         id="flowPara4700">GRATUITE</flowPara></flowRoot>    <flowRoot
       xml:space="preserve"
       id="flowRoot4702"
       style="font-size:64px;font-style:normal;font-variant:normal;font-weight:bold;font-stretch:normal;line-height:125%;letter-spacing:0px;word-spacing:0px;fill:#204a87;fill-opacity:1;stroke:#ffffff;stroke-width:1.60000002;stroke-miterlimit:4;stroke-opacity:1;stroke-dasharray:none;font-family:Ubuntu;-inkscape-font-specification:Ubuntu Bold"
       transform="matrix(0.99602651,-0.08905723,0.08905723,0.99602651,-13.003197,194.6537)"
       inkscape:transform-center-y="14.142136"><flowRegion
         id="flowRegion4704"><rect
           id="rect4706"
           width="499.97537"
           height="86.551125"
           x="165.71428"
           y="218.07646"
           style="font-size:64px;font-style:normal;font-variant:normal;font-weight:bold;font-stretch:normal;fill:#204a87;fill-opacity:1;stroke:#ffffff;stroke-width:1.60000002;stroke-miterlimit:4;stroke-opacity:1;stroke-dasharray:none;font-family:Ubuntu;-inkscape-font-specification:Ubuntu Bold" /></flowRegion><flowPara
         id="flowPara4708"
         style="font-size:64px;font-style:normal;font-variant:normal;font-weight:bold;font-stretch:normal;fill:#204a87;fill-opacity:1;font-family:Ubuntu;-inkscape-font-specification:Ubuntu Bold">22 JUIN 2013</flowPara></flowRoot>    <flowRoot
       xml:space="preserve"
       id="flowRoot4966"
       style="font-size:64px;font-style:normal;font-variant:normal;font-weight:bold;font-stretch:normal;line-height:125%;letter-spacing:0px;word-spacing:0px;fill:#71b8ff;fill-opacity:1;stroke:#ffffff;stroke-width:1.60000001999999997;stroke-miterlimit:4;stroke-opacity:1;stroke-dasharray:none;font-family:Ubuntu;-inkscape-font-specification:Ubuntu Bold"
       transform="matrix(0.99602651,-0.08905723,0.08905723,0.99602651,25.3826,285.52681)"
       inkscape:transform-center-y="14.142136"><flowRegion
         id="flowRegion4968"><rect
           id="rect4970"
           width="499.97537"
           height="86.551125"
           x="165.71428"
           y="218.07646"
           style="font-size:64px;font-style:normal;font-variant:normal;font-weight:bold;font-stretch:normal;fill:#71b8ff;fill-opacity:1;stroke:#ffffff;stroke-width:1.60000001999999997;stroke-miterlimit:4;stroke-opacity:1;stroke-dasharray:none;font-family:Ubuntu;-inkscape-font-specification:Ubuntu Bold" /></flowRegion><flowPara
         id="flowPara4972"
         style="font-size:64px;font-style:normal;font-variant:normal;font-weight:bold;font-stretch:normal;fill:#71b8ff;fill-opacity:1;font-family:Ubuntu;-inkscape-font-specification:Ubuntu Bold">À NANTES</flowPara></flowRoot>    <flowRoot
       inkscape:transform-center-y="14.142136"
       transform="matrix(0.99602651,-0.08905723,0.08905723,0.99602651,25.561171,283.31252)"
       style="font-size:64px;font-style:normal;font-variant:normal;font-weight:bold;font-stretch:normal;line-height:125%;letter-spacing:0px;word-spacing:0px;fill:#204a87;fill-opacity:1;stroke:#ffffff;stroke-width:1.60000002;stroke-miterlimit:4;stroke-opacity:1;stroke-dasharray:none;font-family:Ubuntu;-inkscape-font-specification:Ubuntu Bold"
       id="flowRoot4710"
       xml:space="preserve"><flowRegion
         id="flowRegion4712"><rect
           style="font-size:64px;font-style:normal;font-variant:normal;font-weight:bold;font-stretch:normal;fill:#204a87;fill-opacity:1;stroke:#ffffff;stroke-width:1.60000002;stroke-miterlimit:4;stroke-opacity:1;stroke-dasharray:none;font-family:Ubuntu;-inkscape-font-specification:Ubuntu Bold"
           y="218.07646"
           x="165.71428"
           height="86.551125"
           width="499.97537"
           id="rect4714" /></flowRegion><flowPara
         style="font-size:64px;font-style:normal;font-variant:normal;font-weight:bold;font-stretch:normal;fill:#204a87;fill-opacity:1;font-family:Ubuntu;-inkscape-font-specification:Ubuntu Bold"
         id="flowPara4716">À NANTES</flowPara></flowRoot>    <path
       sodipodi:type="arc"
       style="fill:#81cdc0;fill-opacity:1;stroke:#ffffff;stroke-width:1.5;stroke-miterlimit:4;stroke-opacity:1;stroke-dasharray:none"
       id="path4754"
       sodipodi:cx="330.31989"
       sodipodi:cy="166.4584"
       sodipodi:rx="71.720833"
       sodipodi:ry="71.720833"
       d="m 402.04072,166.4584 a 71.720833,71.720833 0 1 1 -143.44167,0 71.720833,71.720833 0 1 1 143.44167,0 z"
       transform="translate(33.335034,-54.548237)" />
    <g
       transform="matrix(0.2713915,0,0,0.26603462,300.49839,57.548763)"
       id="g4976"
       style="fill:none;stroke:#1c1900;stroke-opacity:0.96862745">
      <path
         id="path4978"
         d="m 402.395,271.23 c -50.302,10.376 -53.76,-6.655 -53.76,-6.655 53.111,-78.808 75.313,-178.843 56.153,-203.326 -52.27,-66.785 -142.752,-35.2 -144.262,-34.38 l -0.486,0.087 c -9.938,-2.063 -21.06,-3.292 -33.56,-3.496 -22.761,-0.373 -40.026,5.967 -53.127,15.902 0,0 -161.411,-66.495 -153.904,83.63 1.597,31.938 45.776,241.657 98.471,178.312 19.26,-23.163 37.869,-42.748 37.869,-42.748 9.243,6.14 20.308,9.272 31.908,8.147 l 0.901,-0.765 c -0.28,2.876 -0.152,5.689 0.361,9.019 -13.575,15.167 -9.586,17.83 -36.723,23.416 -27.459,5.659 -11.328,15.734 -0.796,18.367 12.768,3.193 42.307,7.716 62.266,-20.224 l -0.796,3.188 c 5.319,4.26 9.054,27.711 8.428,48.969 -0.626,21.259 -1.044,35.854 3.147,47.254 4.191,11.4 8.368,37.05 44.042,29.406 29.809,-6.388 45.256,-22.942 47.405,-50.555 1.525,-19.631 4.976,-16.729 5.194,-34.28 l 2.768,-8.309 c 3.192,-26.611 0.507,-35.196 18.872,-31.203 l 4.463,0.392 c 13.517,0.615 31.208,-2.174 41.591,-7 22.358,-10.376 35.618,-27.7 13.573,-23.148 l 0.002,0 z"
         style="fill:none;stroke:#1c1900;stroke-width:12.46510029;stroke-linecap:round;stroke-linejoin:round;stroke-miterlimit:4;stroke-opacity:0.96862745"
         inkscape:connector-curvature="0" />
      <path
         style="fill:none;stroke:#1c1900;stroke-width:12.46510029;stroke-linecap:round;stroke-linejoin:round;stroke-miterlimit:4;stroke-opacity:0.96862745"
         id="path4980"
         d="m 215.866,286.484 c -1.385,49.516 0.348,99.377 5.193,111.495 4.848,12.118 15.223,35.688 50.9,28.045 29.806,-6.39 40.651,-18.756 45.357,-46.051 3.466,-20.082 10.148,-75.854 11.005,-87.281"
         inkscape:connector-curvature="0" />
      <path
         style="fill:none;stroke:#1c1900;stroke-width:12.46510029;stroke-linecap:round;stroke-linejoin:round;stroke-miterlimit:4;stroke-opacity:0.96862745"
         id="path4982"
         d="m 173.104,38.256 c 0,0 -161.521,-66.016 -154.012,84.109 1.597,31.938 45.779,241.664 98.473,178.316 19.256,-23.166 36.671,-41.335 36.671,-41.335"
         inkscape:connector-curvature="0" />
      <path
         style="fill:none;stroke:#1c1900;stroke-width:12.46510029;stroke-linecap:round;stroke-linejoin:round;stroke-miterlimit:4;stroke-opacity:0.96862745"
         id="path4984"
         d="m 260.349,26.207 c -5.591,1.753 89.848,-34.889 144.087,34.417 19.159,24.484 -3.043,124.519 -56.153,203.329"
         inkscape:connector-curvature="0" />
      <path
         id="path4986"
         d="m 348.282,263.953 c 0,0 3.461,17.036 53.764,6.653 22.04,-4.552 8.776,12.774 -13.577,23.155 -18.345,8.514 -59.474,10.696 -60.146,-1.069 -1.729,-30.355 21.647,-21.133 19.96,-28.739 -1.525,-6.85 -11.979,-13.573 -18.894,-30.338 -6.037,-14.633 -82.796,-126.849 21.287,-110.183 3.813,-0.789 -27.146,-99.002 -124.553,-100.599 -97.385,-1.597 -94.19,119.762 -94.19,119.762"
         style="fill:none;stroke:#1c1900;stroke-width:12.46510029;stroke-linecap:round;stroke-linejoin:bevel;stroke-miterlimit:4;stroke-opacity:0.96862745"
         inkscape:connector-curvature="0" />
      <path
         style="fill:none;stroke:#1c1900;stroke-width:12.46510029;stroke-linecap:round;stroke-linejoin:round;stroke-miterlimit:4;stroke-opacity:0.96862745"
         id="path4988"
         d="m 188.604,274.334 c -13.577,15.166 -9.584,17.829 -36.723,23.417 -27.459,5.66 -11.326,15.733 -0.797,18.365 12.768,3.195 42.307,7.718 62.266,-20.229 6.078,-8.509 -0.036,-22.086 -8.385,-25.547 -4.034,-1.671 -9.428,-3.765 -16.361,3.994 l 0,0 z"
         inkscape:connector-curvature="0" />
      <path
         style="fill:none;stroke:#1c1900;stroke-width:12.46510029;stroke-linecap:round;stroke-linejoin:round;stroke-miterlimit:4;stroke-opacity:0.96862745"
         id="path4990"
         d="m 187.715,274.069 c -1.368,-8.917 2.93,-19.528 7.536,-31.942 6.922,-18.626 22.893,-37.255 10.117,-96.339 -9.523,-44.029 -73.396,-9.163 -73.436,-3.193 -0.039,5.968 2.889,30.26 -1.067,58.548 -5.162,36.913 23.488,68.132 56.479,64.938"
         inkscape:connector-curvature="0" />
      <path
         id="path4992"
         d="m 172.517,141.7 c -0.288,2.039 3.733,7.48 8.976,8.207 5.234,0.73 9.714,-3.522 9.998,-5.559 0.284,-2.039 -3.732,-4.285 -8.977,-5.015 -5.237,-0.731 -9.719,0.333 -9.996,2.367 l -0.001,0 z"
         style="fill:none;stroke:#1c1900;stroke-width:4.15500021;stroke-linecap:butt;stroke-linejoin:miter;stroke-miterlimit:4;stroke-opacity:0.96862745"
         inkscape:connector-curvature="0" />
      <path
         id="path4994"
         d="m 331.941,137.543 c 0.284,2.039 -3.732,7.48 -8.976,8.207 -5.238,0.73 -9.718,-3.522 -10.005,-5.559 -0.277,-2.039 3.74,-4.285 8.979,-5.015 5.239,-0.73 9.718,0.333 10.002,2.368 l 0,-0.001 z"
         style="fill:none;stroke:#1c1900;stroke-width:2.0775001;stroke-linecap:butt;stroke-linejoin:miter;stroke-miterlimit:4;stroke-opacity:0.96862745"
         inkscape:connector-curvature="0" />
      <path
         style="fill:none;stroke:#1c1900;stroke-width:12.46510029;stroke-linecap:round;stroke-linejoin:round;stroke-miterlimit:4;stroke-opacity:0.96862745"
         id="path4996"
         d="m 350.676,123.432 c 0.863,15.994 -3.445,26.888 -3.988,43.914 -0.804,24.748 11.799,53.074 -7.191,81.435"
         inkscape:connector-curvature="0" />
      <path
         id="path4998"
         style="fill:none;stroke:#1c1900;stroke-width:3;stroke-linecap:round;stroke-linejoin:round;stroke-miterlimit:4;stroke-opacity:0.96862745"
         d=""
         inkscape:connector-curvature="0" />
    </g>
    <g
       id="g3619"
       transform="matrix(0.2713915,0,0,0.26603462,299.78411,56.834478)">
      <path
         inkscape:connector-curvature="0"
         style="fill:#ffffff;fill-opacity:0;fill-rule:nonzero;stroke:#ffffff;stroke-width:12.46510029;stroke-linecap:round;stroke-linejoin:round;stroke-miterlimit:4;stroke-opacity:1"
         d="m 402.395,271.23 c -50.302,10.376 -53.76,-6.655 -53.76,-6.655 53.111,-78.808 75.313,-178.843 56.153,-203.326 -52.27,-66.785 -142.752,-35.2 -144.262,-34.38 l -0.486,0.087 c -9.938,-2.063 -21.06,-3.292 -33.56,-3.496 -22.761,-0.373 -40.026,5.967 -53.127,15.902 0,0 -161.411,-66.495 -153.904,83.63 1.597,31.938 45.776,241.657 98.471,178.312 19.26,-23.163 37.869,-42.748 37.869,-42.748 9.243,6.14 20.308,9.272 31.908,8.147 l 0.901,-0.765 c -0.28,2.876 -0.152,5.689 0.361,9.019 -13.575,15.167 -9.586,17.83 -36.723,23.416 -27.459,5.659 -11.328,15.734 -0.796,18.367 12.768,3.193 42.307,7.716 62.266,-20.224 l -0.796,3.188 c 5.319,4.26 9.054,27.711 8.428,48.969 -0.626,21.259 -1.044,35.854 3.147,47.254 4.191,11.4 8.368,37.05 44.042,29.406 29.809,-6.388 45.256,-22.942 47.405,-50.555 1.525,-19.631 4.976,-16.729 5.194,-34.28 l 2.768,-8.309 c 3.192,-26.611 0.507,-35.196 18.872,-31.203 l 4.463,0.392 c 13.517,0.615 31.208,-2.174 41.591,-7 22.358,-10.376 35.618,-27.7 13.573,-23.148 l 0.002,0 z"
         id="path2464" />
      <path
         inkscape:connector-curvature="0"
         d="m 215.866,286.484 c -1.385,49.516 0.348,99.377 5.193,111.495 4.848,12.118 15.223,35.688 50.9,28.045 29.806,-6.39 40.651,-18.756 45.357,-46.051 3.466,-20.082 10.148,-75.854 11.005,-87.281"
         id="path2466"
         style="fill:#ffffff;fill-opacity:0;fill-rule:nonzero;stroke:#ffffff;stroke-width:12.46510029;stroke-linecap:round;stroke-linejoin:round;stroke-miterlimit:4;stroke-opacity:1" />
      <path
         inkscape:connector-curvature="0"
         d="m 173.104,38.256 c 0,0 -161.521,-66.016 -154.012,84.109 1.597,31.938 45.779,241.664 98.473,178.316 19.256,-23.166 36.671,-41.335 36.671,-41.335"
         id="path2468"
         style="fill:#ffffff;fill-opacity:0;fill-rule:nonzero;stroke:#ffffff;stroke-width:12.46510029;stroke-linecap:round;stroke-linejoin:round;stroke-miterlimit:4;stroke-opacity:1" />
      <path
         inkscape:connector-curvature="0"
         d="m 260.349,26.207 c -5.591,1.753 89.848,-34.889 144.087,34.417 19.159,24.484 -3.043,124.519 -56.153,203.329"
         id="path2470"
         style="fill:#ffffff;fill-opacity:0;fill-rule:nonzero;stroke:#ffffff;stroke-width:12.46510029;stroke-linecap:round;stroke-linejoin:round;stroke-miterlimit:4;stroke-opacity:1" />
      <path
         inkscape:connector-curvature="0"
         style="fill:#ffffff;fill-opacity:0;fill-rule:nonzero;stroke:#ffffff;stroke-width:12.46510029;stroke-linecap:round;stroke-linejoin:bevel;stroke-miterlimit:4;stroke-opacity:1"
         d="m 348.282,263.953 c 0,0 3.461,17.036 53.764,6.653 22.04,-4.552 8.776,12.774 -13.577,23.155 -18.345,8.514 -59.474,10.696 -60.146,-1.069 -1.729,-30.355 21.647,-21.133 19.96,-28.739 -1.525,-6.85 -11.979,-13.573 -18.894,-30.338 -6.037,-14.633 -82.796,-126.849 21.287,-110.183 3.813,-0.789 -27.146,-99.002 -124.553,-100.599 -97.385,-1.597 -94.19,119.762 -94.19,119.762"
         id="path2472" />
      <path
         inkscape:connector-curvature="0"
         d="m 188.604,274.334 c -13.577,15.166 -9.584,17.829 -36.723,23.417 -27.459,5.66 -11.326,15.733 -0.797,18.365 12.768,3.195 42.307,7.718 62.266,-20.229 6.078,-8.509 -0.036,-22.086 -8.385,-25.547 -4.034,-1.671 -9.428,-3.765 -16.361,3.994 l 0,0 z"
         id="path2474"
         style="fill:#ffffff;fill-opacity:0;fill-rule:nonzero;stroke:#ffffff;stroke-width:12.46510029;stroke-linecap:round;stroke-linejoin:round;stroke-miterlimit:4;stroke-opacity:1" />
      <path
         inkscape:connector-curvature="0"
         d="m 187.715,274.069 c -1.368,-8.917 2.93,-19.528 7.536,-31.942 6.922,-18.626 22.893,-37.255 10.117,-96.339 -9.523,-44.029 -73.396,-9.163 -73.436,-3.193 -0.039,5.968 2.889,30.26 -1.067,58.548 -5.162,36.913 23.488,68.132 56.479,64.938"
         id="path2476"
         style="fill:#ffffff;fill-opacity:0;fill-rule:nonzero;stroke:#ffffff;stroke-width:12.46510029;stroke-linecap:round;stroke-linejoin:round;stroke-miterlimit:4;stroke-opacity:1" />
      <path
         inkscape:connector-curvature="0"
         style="fill:#ffffff;fill-opacity:1;fill-rule:nonzero;stroke:#ffffff;stroke-width:4.15500021;stroke-linecap:butt;stroke-linejoin:miter;stroke-miterlimit:4;stroke-opacity:1"
         d="m 172.517,141.7 c -0.288,2.039 3.733,7.48 8.976,8.207 5.234,0.73 9.714,-3.522 9.998,-5.559 0.284,-2.039 -3.732,-4.285 -8.977,-5.015 -5.237,-0.731 -9.719,0.333 -9.996,2.367 l -0.001,0 z"
         id="path2478" />
      <path
         inkscape:connector-curvature="0"
         style="fill:#ffffff;fill-opacity:1;fill-rule:nonzero;stroke:#ffffff;stroke-width:2.0775001;stroke-linecap:butt;stroke-linejoin:miter;stroke-miterlimit:4;stroke-opacity:1"
         d="m 331.941,137.543 c 0.284,2.039 -3.732,7.48 -8.976,8.207 -5.238,0.73 -9.718,-3.522 -10.005,-5.559 -0.277,-2.039 3.74,-4.285 8.979,-5.015 5.239,-0.73 9.718,0.333 10.002,2.368 l 0,-0.001 z"
         id="path2480" />
      <path
         inkscape:connector-curvature="0"
         d="m 350.676,123.432 c 0.863,15.994 -3.445,26.888 -3.988,43.914 -0.804,24.748 11.799,53.074 -7.191,81.435"
         id="path2482"
         style="fill:#ffffff;fill-opacity:0;fill-rule:nonzero;stroke:#ffffff;stroke-width:12.46510029;stroke-linecap:round;stroke-linejoin:round;stroke-miterlimit:4;stroke-opacity:1" />
      <path
         inkscape:connector-curvature="0"
         d=""
         style="fill-rule:nonzero;stroke:#ffffff;stroke-width:3;stroke-linecap:round;stroke-linejoin:round;stroke-miterlimit:4"
         id="path2484" />
    </g>
    <path
       sodipodi:nodetypes="ccccc"
       inkscape:connector-curvature="0"
       id="path4884"
       d="m 93.714288,232.36218 571.428582,-50 0,71.42858 -571.428582,50 z"
       style="fill:none;stroke:#fd4747;stroke-width:1.61699999999999999;stroke-miterlimit:4;stroke-opacity:0.96862745;stroke-dasharray:none;filter:url(#filter4926)" />
    <path
       sodipodi:nodetypes="ccccc"
       inkscape:connector-curvature="0"
       id="path4886"
       d="m 93.714288,324.81116 571.428582,-50 0,71.42858 -571.428582,50 z"
       style="fill:none;stroke:#fd4747;stroke-width:1.61699999999999999;stroke-miterlimit:4;stroke-opacity:0.96862745;stroke-dasharray:none;filter:url(#filter4930)" />
    <path
       sodipodi:nodetypes="ccccc"
       inkscape:connector-curvature="0"
       id="path4888"
       d="m 93.714288,417.26013 571.428582,-50 0,71.42858 -571.428582,50 z"
       style="fill:none;stroke:#fd4747;stroke-width:1.61699999999999999;stroke-miterlimit:4;stroke-opacity:0.96862745;stroke-dasharray:none;filter:url(#filter4934)" />
    <path
       sodipodi:nodetypes="ccccc"
       inkscape:connector-curvature="0"
       id="path4890"
       d="m 93.714288,509.70914 571.428582,-50 0,71.42858 -571.428582,50 z"
       style="fill:none;stroke:#fd4747;stroke-width:1.61699999999999999;stroke-miterlimit:4;stroke-opacity:0.96862745;stroke-dasharray:none;filter:url(#filter4938)" />
    <path
       sodipodi:nodetypes="ccccc"
       inkscape:connector-curvature="0"
       id="path4892"
       d="m 93.714288,602.15811 571.428592,-50 0,71.42858 -571.428592,50 z"
       style="fill:none;stroke:#fd4747;stroke-width:1.61699999999999999;stroke-miterlimit:4;stroke-opacity:0.96862745;stroke-dasharray:none;filter:url(#filter4942)" />
    <path
       sodipodi:nodetypes="ccccc"
       inkscape:connector-curvature="0"
       id="path4894"
       d="m 93.714288,694.60709 571.428592,-50 0,71.42858 -571.428592,50 z"
       style="fill:none;stroke:#fd4747;stroke-width:1.61699999999999999;stroke-miterlimit:4;stroke-opacity:0.96862745;stroke-dasharray:none;filter:url(#filter4946)" />
    <path
       sodipodi:nodetypes="ccccc"
       inkscape:connector-curvature="0"
       id="path4896"
       d="m 93.714288,787.05606 571.428592,-50 0,71.42858 -571.428592,50 z"
       style="fill:none;stroke:#fd4747;stroke-width:1.61699999999999999;stroke-miterlimit:4;stroke-opacity:0.96862745;stroke-dasharray:none;filter:url(#filter4950)" />
    <flowRoot
       xml:space="preserve"
       id="flowRoot5126"
       style="font-size:40px;font-style:normal;font-weight:normal;line-height:125%;letter-spacing:0px;word-spacing:0px;fill:#000000;fill-opacity:1;stroke:none;font-family:Sans"
       transform="matrix(2.0940806,0,0,2.0940806,-73.842077,1054.8447)"><flowRegion
         id="flowRegion5128"><rect
           id="rect5130"
           width="805.71429"
           height="288.57144"
           x="-20"
           y="-650.49493" /></flowRegion><flowPara
         id="flowPara5132" /></flowRoot>  </g>
</svg>
